# xmcd
#
# Track frame offsets: 
#        150
#        12919
#        25857
#        41734
#        49531
#        62637
#        76064
#        91918
#        107089
#        119401
#        133134
#        146324
#
# Disc length: 2151 seconds
#
# Revision: 0
# Processed by: cddbd v1.5.2PL0 Copyright (c) Steve Scherf et al.
# Submitted via: ExactAudioCopyFreeDBPlugin 1.0
#
DISCID=9508650c
DTITLE=Matt Duke - True Ohio Playa
DYEAR=2008
DGENRE=Hip-Hop
TTITLE0=Mama, I Can't Stop Rappin'
TTITLE1=Tune In Tokyo
TTITLE2=Friday Night
TTITLE3=Now You Know
TTITLE4=Akron Breakin' Company
TTITLE5=Soft Jams
TTITLE6=True Ohio Playa
TTITLE7=We Belong Together
TTITLE8=Ask Pooja
TTITLE9=Get Out!
TTITLE10=Duke's Been Drinkin' Again
TTITLE11=Havin' Things
EXTD=
EXTT0=
EXTT1=
EXTT2=
EXTT3=
EXTT4=
EXTT5=
EXTT6=
EXTT7=
EXTT8=
EXTT9=
EXTT10=
EXTT11=
PLAYORDER=
